<?xml version="1.0" encoding="utf-8"?>
<!-- Generator: Adobe Illustrator 17.0.0, SVG Export Plug-In . SVG Version: 6.00 Build 0)  -->
<!DOCTYPE svg PUBLIC "-//W3C//DTD SVG 1.1//EN" "http://www.w3.org/Graphics/SVG/1.1/DTD/svg11.dtd">
<svg version="1.1" xmlns="http://www.w3.org/2000/svg" xmlns:xlink="http://www.w3.org/1999/xlink" x="0px" y="0px" width="750px"
	 height="500px" viewBox="0 0 750 500" enable-background="new 0 0 750 500" xml:space="preserve">
<g id="Background">
	<linearGradient id="SVGID_1_" gradientUnits="userSpaceOnUse" x1="375" y1="250" x2="375" y2="-500">
		<stop  offset="0" style="stop-color:#674CFF"/>
		<stop  offset="1" style="stop-color:#FF7FF8"/>
	</linearGradient>
	<rect fill="url(#SVGID_1_)" width="750" height="500"/>
</g>
<g id="Design_1_">
	<g>
		<defs>
			<rect id="SVGID_2_" width="750" height="500"/>
		</defs>
		<clipPath id="SVGID_3_">
			<use xlink:href="#SVGID_2_"  overflow="visible"/>
		</clipPath>
		<g clip-path="url(#SVGID_3_)">
			<linearGradient id="SVGID_4_" gradientUnits="userSpaceOnUse" x1="301.1529" y1="183.6529" x2="541.8803" y2="424.3803">
				<stop  offset="0" style="stop-color:#000000"/>
				<stop  offset="0.981" style="stop-color:#674CFF;stop-opacity:0"/>
			</linearGradient>
			<polyline display="none" fill="url(#SVGID_4_)" points="278,371 424,519 621.5,519 847,517 476,149 476,371 276,371 			"/>
			<linearGradient id="SVGID_5_" gradientUnits="userSpaceOnUse" x1="231.6613" y1="114.6613" x2="458.8477" y2="341.8477">
				<stop  offset="0" style="stop-color:#000000"/>
				<stop  offset="0.981" style="stop-color:#674CFF;stop-opacity:0"/>
			</linearGradient>
			<polygon display="none" fill="url(#SVGID_5_)" points="278,368 278,371 476,370 476,205 475,148 278,148 278,326 			"/>
			<rect x="203.78" y="250.847" fill="none" width="346.468" height="63.474"/>
			
				<text transform="matrix(1 0 0 1 337.0319 263.5339)" display="none" fill="#FFFFFF" font-family="'WorkSans-Bold'" font-size="18">Abstract</text>
			<rect x="205.105" y="270.197" fill="none" width="343.819" height="24.369"/>
			
				<text transform="matrix(1 0 0 1 331.0319 275.7844)" display="none" fill="#FFFFFF" font-family="'WorkSans-Regular'" font-size="8" letter-spacing="1">GALAXY TEMPLATE</text>
			
				<linearGradient id="SVGID_6_" gradientUnits="userSpaceOnUse" x1="105.1525" y1="376.9991" x2="255.7855" y2="376.9991" gradientTransform="matrix(-0.7071 0.7071 -0.7071 -0.7071 557.8699 376.8962)">
				<stop  offset="0" style="stop-color:#9C5EFD;stop-opacity:0"/>
				<stop  offset="0.1966" style="stop-color:#A260FD"/>
				<stop  offset="0.4405" style="stop-color:#FF7FF8"/>
				<stop  offset="0.4704" style="stop-color:#FF8BF9"/>
				<stop  offset="0.5866" style="stop-color:#FFB4FB"/>
				<stop  offset="0.7002" style="stop-color:#FFD5FD"/>
				<stop  offset="0.8088" style="stop-color:#FFECFE"/>
				<stop  offset="0.9105" style="stop-color:#FFFAFF"/>
				<stop  offset="0.9982" style="stop-color:#FFFFFF"/>
			</linearGradient>
			<path display="none" fill="url(#SVGID_6_)" d="M110.428,285.434l100.76-100.76c1.582-1.582,4.171-1.582,5.753,0l0,0
				c1.582,1.582,1.582,4.171,0,5.753l-100.76,100.76c-1.582,1.582-4.171,1.582-5.753,0l0,0
				C108.846,289.604,108.846,287.015,110.428,285.434z"/>
			
				<linearGradient id="SVGID_7_" gradientUnits="userSpaceOnUse" x1="-248.4858" y1="46.0699" x2="-97.8562" y2="46.0699" gradientTransform="matrix(-0.4274 0.4274 -0.7071 -0.7071 562.1802 372.5859)">
				<stop  offset="0" style="stop-color:#9C5EFD;stop-opacity:0"/>
				<stop  offset="0.1966" style="stop-color:#A260FD"/>
				<stop  offset="0.4405" style="stop-color:#FF7FF8"/>
				<stop  offset="0.4704" style="stop-color:#FF8BF9"/>
				<stop  offset="0.5866" style="stop-color:#FFB4FB"/>
				<stop  offset="0.7002" style="stop-color:#FFD5FD"/>
				<stop  offset="0.8088" style="stop-color:#FFECFE"/>
				<stop  offset="0.9105" style="stop-color:#FFFAFF"/>
				<stop  offset="0.9982" style="stop-color:#FFFFFF"/>
			</linearGradient>
			<path display="none" fill="url(#SVGID_7_)" d="M571.428,292.434l58.626-58.626c1.582-1.582,4.171-1.582,5.753,0l0,0
				c1.582,1.582,1.582,4.171,0,5.753l-58.627,58.626c-1.582,1.582-4.171,1.582-5.753,0l0,0
				C569.846,296.604,569.846,294.015,571.428,292.434z"/>
			
				<linearGradient id="SVGID_8_" gradientUnits="userSpaceOnUse" x1="186.1274" y1="153.5511" x2="336.7842" y2="153.5511" gradientTransform="matrix(-0.1585 0.1585 -0.7071 -0.7071 472.3842 462.3818)">
				<stop  offset="0" style="stop-color:#9C5EFD;stop-opacity:0"/>
				<stop  offset="0.1966" style="stop-color:#A260FD"/>
				<stop  offset="0.4405" style="stop-color:#FFB3D9"/>
				<stop  offset="0.4471" style="stop-color:#FFB5DA"/>
				<stop  offset="0.5984" style="stop-color:#FFD5EA"/>
				<stop  offset="0.7442" style="stop-color:#FFECF6"/>
				<stop  offset="0.8805" style="stop-color:#FFFAFD"/>
				<stop  offset="0.9982" style="stop-color:#FFFFFF"/>
			</linearGradient>
			<path display="none" fill="url(#SVGID_8_)" d="M310.428,401.434l18.127-18.126c1.582-1.582,4.171-1.582,5.753,0l0,0
				c1.582,1.582,1.582,4.171,0,5.753l-18.126,18.126c-1.582,1.582-4.171,1.582-5.753,0l0,0
				C308.846,405.604,308.846,403.015,310.428,401.434z"/>
			
				<linearGradient id="SVGID_9_" gradientUnits="userSpaceOnUse" x1="10.0542" y1="550.2419" x2="160.6838" y2="550.2419" gradientTransform="matrix(-0.4274 0.4274 -0.7071 -0.7071 562.1802 372.5859)">
				<stop  offset="0" style="stop-color:#9C5EFD;stop-opacity:0"/>
				<stop  offset="0.1966" style="stop-color:#A260FD"/>
				<stop  offset="0.4405" style="stop-color:#FFB3D9"/>
				<stop  offset="0.4471" style="stop-color:#FFB5DA"/>
				<stop  offset="0.5984" style="stop-color:#FFD5EA"/>
				<stop  offset="0.7442" style="stop-color:#FFECF6"/>
				<stop  offset="0.8805" style="stop-color:#FFFAFD"/>
				<stop  offset="0.9982" style="stop-color:#FFFFFF"/>
			</linearGradient>
			<path display="none" fill="url(#SVGID_9_)" d="M104.428,46.433l58.626-58.626c1.582-1.582,4.171-1.582,5.753,0l0,0
				c1.582,1.582,1.582,4.171,0,5.753L110.18,52.186c-1.582,1.582-4.171,1.582-5.753,0l0,0
				C102.846,50.604,102.846,48.015,104.428,46.433z"/>
			<g>
				<linearGradient id="SVGID_10_" gradientUnits="userSpaceOnUse" x1="119.266" y1="117.8112" x2="208.6391" y2="117.8112">
					<stop  offset="0" style="stop-color:#674CFF"/>
					<stop  offset="1" style="stop-color:#FF7FF8"/>
				</linearGradient>
				
					<path fill="none" stroke="url(#SVGID_10_)" stroke-width="6.48" stroke-linecap="round" stroke-linejoin="round" stroke-miterlimit="10" d="
					M128.977,112.707c-4.828-3.979-7.235-7.63-6.255-10.259c2.314-6.21,22.65-4.367,45.421,4.118s39.355,20.397,37.041,26.607
					c-0.97,2.603-5.105,3.791-11.259,3.668"/>
				
					<linearGradient id="SVGID_11_" gradientUnits="userSpaceOnUse" x1="174.888" y1="284.6965" x2="234.8872" y2="284.6965" gradientTransform="matrix(0.9371 0.3491 -0.3491 0.9371 72.3874 -223.3153)">
					<stop  offset="0" style="stop-color:#7F84FF;stop-opacity:0"/>
					<stop  offset="0.0957" style="stop-color:#A492F4;stop-opacity:0.1977"/>
					<stop  offset="0.2129" style="stop-color:#CBA0E8;stop-opacity:0.4397"/>
					<stop  offset="0.3207" style="stop-color:#E8AAE0;stop-opacity:0.6623"/>
					<stop  offset="0.4146" style="stop-color:#F9B1DB;stop-opacity:0.8563"/>
					<stop  offset="0.4841" style="stop-color:#FFB3D9"/>
					<stop  offset="0.6025" style="stop-color:#FFC0DF"/>
					<stop  offset="0.8194" style="stop-color:#FFE1F0"/>
					<stop  offset="0.9846" style="stop-color:#FFFFFF"/>
				</linearGradient>
				<path fill="url(#SVGID_11_)" d="M154.526,143.112L154.526,143.112c-15.462-5.761-23.399-23.125-17.638-38.586l0,0
					c5.761-15.462,23.125-23.399,38.586-17.638l0,0c15.462,5.761,23.399,23.125,17.638,38.586l0,0
					C187.351,140.936,169.987,148.873,154.526,143.112z"/>
				<linearGradient id="SVGID_12_" gradientUnits="userSpaceOnUse" x1="125.7369" y1="124.7747" x2="197.1649" y2="124.7747">
					<stop  offset="0" style="stop-color:#674CFF"/>
					<stop  offset="1" style="stop-color:#FF7FF8"/>
				</linearGradient>
				
					<path fill="none" stroke="url(#SVGID_12_)" stroke-width="6.48" stroke-linecap="round" stroke-linejoin="round" stroke-miterlimit="10" d="
					M193.925,136.842c-8.529-0.17-20.934-2.857-34.162-7.786c-13.133-4.893-24.207-10.926-30.786-16.349"/>
			</g>
			
				<rect x="278" y="148" display="none" fill="none" stroke="#FFFFFF" stroke-width="2" stroke-linecap="round" stroke-linejoin="round" stroke-miterlimit="10" width="198" height="223"/>
			<linearGradient id="SVGID_13_" gradientUnits="userSpaceOnUse" x1="-49.9652" y1="381.4074" x2="419.9206" y2="381.4074">
				<stop  offset="0.019" style="stop-color:#674CFF;stop-opacity:0"/>
				<stop  offset="0.1981" style="stop-color:#674CFF"/>
				<stop  offset="1" style="stop-color:#FF7FF8"/>
			</linearGradient>
			<path fill="url(#SVGID_13_)" d="M46.539,242.898c26.908,35.899,49.888,74.764,78.966,108.929
				c29.078,34.165,65.656,64.101,109.224,74.806c42.418,10.422,87.635,1.814,130.283,11.253
				c16.924,3.745,33.925,10.829,44.893,24.251c10.969,13.422,14.068,34.307,3.51,48.055c-7.353,9.575-19.456,13.989-30.984,17.574
				c-120.291,37.405-252.646,34.84-371.397-7.198c-4.876-1.726-9.868-3.599-13.663-7.113c-3.341-3.093-5.501-7.225-7.552-11.29
				c-28.925-57.342-49.508-122.89-35.035-185.462c4.076-17.622,10.778-34.538,14.534-52.24c2.997-14.122,0.388-31.283,8.601-43.829
				C-2.363,190.512,33.137,225.018,46.539,242.898z"/>
			
				<linearGradient id="SVGID_14_" gradientUnits="userSpaceOnUse" x1="19.0348" y1="630.4074" x2="488.9206" y2="630.4074" gradientTransform="matrix(-1 0 0 -1 839.9554 762.8148)">
				<stop  offset="0.019" style="stop-color:#674CFF;stop-opacity:0"/>
				<stop  offset="0.1981" style="stop-color:#674CFF"/>
				<stop  offset="1" style="stop-color:#FF7FF8"/>
			</linearGradient>
			<path fill="url(#SVGID_14_)" d="M724.417,270.917c-26.908-35.899-49.888-74.764-78.966-108.929
				c-29.078-34.165-65.656-64.101-109.224-74.805c-42.418-10.422-87.635-1.814-130.283-11.253
				c-16.924-3.745-33.924-10.829-44.893-24.251c-10.969-13.422-14.068-34.307-3.51-48.055c7.353-9.575,19.456-13.989,30.984-17.574
				c120.291-37.405,252.646-34.84,371.397,7.198c4.876,1.726,9.867,3.599,13.663,7.113c3.341,3.093,5.501,7.225,7.552,11.29
				c28.925,57.342,49.508,122.89,35.035,185.462c-4.076,17.622-10.778,34.538-14.534,52.24c-2.997,14.122-0.388,31.283-8.601,43.829
				C773.318,323.302,737.818,288.797,724.417,270.917z"/>
			<linearGradient id="SVGID_15_" gradientUnits="userSpaceOnUse" x1="546.9014" y1="379.2923" x2="681.3995" y2="379.2923">
				<stop  offset="0" style="stop-color:#674CFF"/>
				<stop  offset="0.2276" style="stop-color:#7350FE"/>
				<stop  offset="0.6405" style="stop-color:#945BFD"/>
				<stop  offset="1" style="stop-color:#B566FB"/>
			</linearGradient>
			<path fill="url(#SVGID_15_)" d="M564.192,358.313c-6.521,6.225-12.841,13.114-15.786,21.635
				c-2.945,8.52-1.729,19.051,5.079,24.96c3.047,2.644,6.915,4.158,10.811,5.204c9.66,2.594,20.009,2.57,29.657-0.068
				c4.206-1.15,8.431-2.804,12.775-2.415c11.441,1.025,16.796,14.567,26.094,21.311c10.487,7.607,26.156,5.365,35.774-3.315
				c9.618-8.68,13.594-22.414,12.675-35.337c-1.672-23.493-19.786-60.178-45.772-64.69
				C610.427,321.246,580.978,342.291,564.192,358.313z"/>
			<linearGradient id="SVGID_16_" gradientUnits="userSpaceOnUse" x1="511.6784" y1="200.6817" x2="622.183" y2="200.6817">
				<stop  offset="0" style="stop-color:#674CFF"/>
				<stop  offset="0.2276" style="stop-color:#7350FE"/>
				<stop  offset="0.6405" style="stop-color:#945BFD"/>
				<stop  offset="1" style="stop-color:#B566FB"/>
			</linearGradient>
			<path fill="url(#SVGID_16_)" d="M565.188,216.522c5.14-2.333,10.138-5.441,13.331-10.096c3.193-4.655,4.215-11.124,1.332-15.978
				c-6.656-11.206-27.198-7.725-32.444,3.142C541.776,205.255,551.606,222.688,565.188,216.522z"/>
			
				<linearGradient id="SVGID_17_" gradientUnits="userSpaceOnUse" x1="144.6931" y1="274.3248" x2="208.6262" y2="274.3248" gradientTransform="matrix(-2.3851 2.3851 -0.7071 -0.7071 925.3162 -33.8987)">
				<stop  offset="0" style="stop-color:#7F84FF;stop-opacity:0"/>
				<stop  offset="0.4916" style="stop-color:#FFB3D9"/>
				<stop  offset="0.5019" style="stop-color:#FFB6DA"/>
				<stop  offset="0.6332" style="stop-color:#FFD6EA"/>
				<stop  offset="0.7602" style="stop-color:#FFECF6"/>
				<stop  offset="0.8798" style="stop-color:#FFFAFD"/>
				<stop  offset="0.9846" style="stop-color:#FFFFFF"/>
			</linearGradient>
			<path display="none" fill="url(#SVGID_17_)" d="M233.747,263.968l146.734-146.734c1.582-1.582,4.171-1.582,5.753,0l0,0
				c1.582,1.582,1.582,4.171,0,5.753L239.499,269.72c-1.582,1.582-4.171,1.582-5.753,0l0,0
				C232.165,268.139,232.165,265.55,233.747,263.968z"/>
			
				<linearGradient id="SVGID_18_" gradientUnits="userSpaceOnUse" x1="26.4323" y1="-88.9888" x2="177.0619" y2="-88.9888" gradientTransform="matrix(-0.4274 0.4274 -0.7071 -0.7071 562.1802 372.5859)">
				<stop  offset="0" style="stop-color:#9C5EFD;stop-opacity:0"/>
				<stop  offset="0.1966" style="stop-color:#A260FD"/>
				<stop  offset="0.4405" style="stop-color:#FF7FF8"/>
				<stop  offset="0.4704" style="stop-color:#FF8BF9"/>
				<stop  offset="0.5866" style="stop-color:#FFB4FB"/>
				<stop  offset="0.7002" style="stop-color:#FFD5FD"/>
				<stop  offset="0.8088" style="stop-color:#FFECFE"/>
				<stop  offset="0.9105" style="stop-color:#FFFAFF"/>
				<stop  offset="0.9982" style="stop-color:#FFFFFF"/>
			</linearGradient>
			<path display="none" fill="url(#SVGID_18_)" d="M549.428,505.434l58.626-58.626c1.582-1.582,4.171-1.582,5.753,0l0,0
				c1.582,1.582,1.582,4.171,0,5.753l-58.627,58.626c-1.582,1.582-4.171,1.582-5.753,0l0,0
				C547.846,509.604,547.846,507.015,549.428,505.434z"/>
			<g opacity="0.3">
				<g>
					<path fill="#FFFFFF" d="M696.985,346.191c1.93,0,1.934-3,0-3C695.054,343.191,695.051,346.191,696.985,346.191L696.985,346.191
						z"/>
				</g>
			</g>
			<g opacity="0.3">
				<g>
					<path fill="#FFFFFF" d="M469.23,420.729c1.93,0,1.934-3,0-3C467.299,417.729,467.296,420.729,469.23,420.729L469.23,420.729z"
						/>
				</g>
			</g>
			<g>
				<g>
					<path fill="#FFFFFF" d="M545.32,452.304c1.93,0,1.934-3,0-3C543.39,449.304,543.387,452.304,545.32,452.304L545.32,452.304z"/>
				</g>
			</g>
			<g>
				<g>
					<path fill="#FFFFFF" d="M515.298,257.159c1.93,0,1.934-3,0-3C513.368,254.159,513.365,257.159,515.298,257.159L515.298,257.159
						z"/>
				</g>
			</g>
			<g opacity="0.3">
				<g>
					<path fill="#FFFFFF" d="M617.27,205.914c1.93,0,1.934-3,0-3C615.34,202.914,615.337,205.914,617.27,205.914L617.27,205.914z"/>
				</g>
			</g>
			<g opacity="0.3">
				<g>
					<path fill="#FFFFFF" d="M298.413,318.239c1.93,0,1.934-3,0-3C296.483,315.239,296.48,318.239,298.413,318.239L298.413,318.239z
						"/>
				</g>
			</g>
			<g>
				<g>
					<path fill="#FFFFFF" d="M185.053,331.18c1.93,0,1.934-3,0-3C183.123,328.18,183.12,331.18,185.053,331.18L185.053,331.18z"/>
				</g>
			</g>
			<g opacity="0.3">
				<g>
					<path fill="#FFFFFF" d="M484.758,115.33c1.93,0,1.934-3,0-3C482.828,112.33,482.825,115.33,484.758,115.33L484.758,115.33z"/>
				</g>
			</g>
			<g>
				<g>
					<path fill="#FFFFFF" d="M300.484,93.072c1.93,0,1.934-3,0-3C298.553,90.072,298.55,93.072,300.484,93.072L300.484,93.072z"/>
				</g>
			</g>
			<g opacity="0.3">
				<g>
					<path fill="#FFFFFF" d="M81.011,203.844c1.93,0,1.933-3,0-3C79.08,200.844,79.077,203.844,81.011,203.844L81.011,203.844z"/>
				</g>
			</g>
			<g opacity="0.3">
				<g>
					<path fill="#FFFFFF" d="M238.887,208.502c1.93,0,1.934-3,0-3C236.956,205.502,236.953,208.502,238.887,208.502L238.887,208.502
						z"/>
				</g>
			</g>
			<g opacity="0.3">
				<g>
					<path fill="#FFFFFF" d="M199.547,351.367c1.93,0,1.934-3,0-3C197.617,348.367,197.613,351.367,199.547,351.367L199.547,351.367
						z"/>
				</g>
			</g>
			<g opacity="0.3">
				<g>
					<path fill="#FFFFFF" d="M226.981,52.697c1.93,0,1.934-3,0-3C225.051,49.697,225.048,52.697,226.981,52.697L226.981,52.697z"/>
				</g>
			</g>
			<g>
				<g>
					<path fill="#FFFFFF" d="M153.478,189.35c1.93,0,1.934-3,0-3C151.548,186.35,151.545,189.35,153.478,189.35L153.478,189.35z"/>
				</g>
			</g>
			<g>
				<g>
					<path fill="#FFFFFF" d="M38.048,130.859c1.93,0,1.934-3,0-3C36.118,127.859,36.114,130.859,38.048,130.859L38.048,130.859z"/>
				</g>
			</g>
			<g opacity="0.3">
				<g>
					<path fill="#FFFFFF" d="M312.389,34.58c1.93,0,1.934-3,0-3C310.459,31.58,310.456,34.58,312.389,34.58L312.389,34.58z"/>
				</g>
			</g>
			<g>
				<g>
					<path fill="#FFFFFF" d="M571.202,133.964c1.93,0,1.934-3,0-3C569.271,130.964,569.268,133.964,571.202,133.964L571.202,133.964
						z"/>
				</g>
			</g>
			<g>
				<g>
					<path fill="#FFFFFF" d="M368.81,406.753c1.93,0,1.934-3,0-3C366.88,403.753,366.877,406.753,368.81,406.753L368.81,406.753z"/>
				</g>
			</g>
			<g opacity="0.3">
				<g>
					<path fill="#FFFFFF" d="M503.393,328.591c1.93,0,1.934-3,0-3C501.462,325.591,501.459,328.591,503.393,328.591L503.393,328.591
						z"/>
				</g>
			</g>
			<g>
				<g>
					<path fill="#FFFFFF" d="M422.126,193.491c1.93,0,1.934-3,0-3C420.195,190.491,420.192,193.491,422.126,193.491L422.126,193.491
						z"/>
				</g>
			</g>
			<g>
				<g>
					<path fill="#FFFFFF" d="M415.397,318.757c1.93,0,1.934-3,0-3C413.466,315.757,413.463,318.757,415.397,318.757L415.397,318.757
						z"/>
				</g>
			</g>
			<g>
				<g>
					<path fill="#FFFFFF" d="M708.372,447.128c1.93,0,1.934-3,0-3C706.442,444.128,706.439,447.128,708.372,447.128L708.372,447.128
						z"/>
				</g>
			</g>
			<g>
				<g>
					<path fill="#FFFFFF" d="M621.411,366.378c1.93,0,1.934-3,0-3C619.481,363.378,619.478,366.378,621.411,366.378L621.411,366.378
						z"/>
				</g>
			</g>
			<g>
				<g>
					<path fill="#FFFFFF" d="M677.833,268.029c1.93,0,1.934-3,0-3C675.902,265.029,675.899,268.029,677.833,268.029L677.833,268.029
						z"/>
				</g>
			</g>
			<g>
				<g>
					<path fill="#FFFFFF" d="M483.723,476.632c1.93,0,1.934-3,0-3C481.793,473.632,481.79,476.632,483.723,476.632L483.723,476.632z
						"/>
				</g>
			</g>
			<g opacity="0.3">
				<g>
					<path fill="#FFFFFF" d="M693.361,94.625c1.93,0,1.934-3,0-3C691.431,91.625,691.428,94.625,693.361,94.625L693.361,94.625z"/>
				</g>
			</g>
			<g opacity="0.3">
				<g>
					<path fill="#FFFFFF" d="M563.361,41.625c1.93,0,1.934-3,0-3C561.431,38.625,561.428,41.625,563.361,41.625L563.361,41.625z"/>
				</g>
			</g>
			<g>
				<g>
					<path fill="#FFFFFF" d="M111.033,438.328c1.93,0,1.934-3,0-3C109.103,435.328,109.1,438.328,111.033,438.328L111.033,438.328z"
						/>
				</g>
			</g>
			<g opacity="0.3">
				<g>
					<path fill="#FFFFFF" d="M250.274,465.762c1.93,0,1.934-3,0-3C248.344,462.762,248.341,465.762,250.274,465.762L250.274,465.762
						z"/>
				</g>
			</g>
			<g>
				<g>
					<path fill="#FFFFFF" d="M64.447,369.484c1.93,0,1.934-3,0-3C62.516,366.484,62.513,369.484,64.447,369.484L64.447,369.484z"/>
				</g>
			</g>
			<g opacity="0.3">
				<g>
					<path fill="#FFFFFF" d="M47.365,447.645c1.93,0,1.933-3,0-3C45.435,444.645,45.432,447.645,47.365,447.645L47.365,447.645z"/>
				</g>
			</g>
		</g>
	</g>
</g>
</svg>
