<?xml version="1.0" encoding="iso-8859-1"?>
<!-- Generator: Adobe Illustrator 19.0.0, SVG Export Plug-In . SVG Version: 6.00 Build 0)  -->
<svg version="1.1" id="Capa_1" xmlns="http://www.w3.org/2000/svg" xmlns:xlink="http://www.w3.org/1999/xlink" x="0px" y="0px"
	 viewBox="0 0 490.74 490.74" style="enable-background:new 0 0 490.74 490.74;" xml:space="preserve">
<g>
	<circle style="fill:#455A64;" cx="394.667" cy="426.703" r="53.333"/>
	<circle style="fill:#455A64;" cx="181.333" cy="426.703" r="53.333"/>
</g>
<path style="fill:#FFC107;" d="M488,78.309c-2.026-2.294-4.94-3.607-8-3.605H96c-5.891,0.005-10.662,4.785-10.657,10.677
	c0.001,0.655,0.062,1.309,0.182,1.953l32,170.667c0.944,5.043,5.344,8.699,10.475,8.704h292.992
	c26.9,0.003,49.592-20.027,52.928-46.72l16.747-133.291C491.025,83.644,490.054,80.589,488,78.309z"/>
<path style="fill:#455A64;" d="M437.333,352.037H191.125c-35.561-0.074-66.163-25.156-73.216-60.011L65.92,32.037H10.667
	C4.776,32.037,0,27.261,0,21.37s4.776-10.667,10.667-10.667h64c5.07-0.001,9.439,3.566,10.453,8.533l53.717,268.587
	c5.035,24.896,26.888,42.817,52.288,42.88h246.208c5.891,0,10.667,4.776,10.667,10.667C448,347.261,443.224,352.037,437.333,352.037
	z"/>
<g>
</g>
<g>
</g>
<g>
</g>
<g>
</g>
<g>
</g>
<g>
</g>
<g>
</g>
<g>
</g>
<g>
</g>
<g>
</g>
<g>
</g>
<g>
</g>
<g>
</g>
<g>
</g>
<g>
</g>
</svg>
