<?xml version="1.0"?>
<svg xmlns="http://www.w3.org/2000/svg" xmlns:xlink="http://www.w3.org/1999/xlink" xmlns:svgjs="http://svgjs.com/svgjs" version="1.1" width="512" height="512" x="0" y="0" viewBox="0 0 32 32" style="enable-background:new 0 0 512 512" xml:space="preserve" class=""><g><path xmlns="http://www.w3.org/2000/svg" d="m26 32h-20c-3.314 0-6-2.686-6-6v-20c0-3.314 2.686-6 6-6h20c3.314 0 6 2.686 6 6v20c0 3.314-2.686 6-6 6z" fill="#f9f9f9" data-original="#e3f8fa" style="" class=""/><path xmlns="http://www.w3.org/2000/svg" d="m23.5 22.694h-8.667c-.368 0-.667-.299-.667-.667s.299-.667.667-.667h8.667c.368 0 .667.299.667.667 0 .369-.299.667-.667.667z" fill="#939393" data-original="#8ce1eb" style="" class=""/><path xmlns="http://www.w3.org/2000/svg" d="m21.678 10.792-.943-.943c-.504-.504-1.382-.504-1.885 0l-1.379 1.379 2.828 2.828 1.379-1.379c.252-.252.391-.586.391-.943 0-.355-.139-.69-.391-.942z" fill="#939393" data-original="#8ce1eb" style="" class=""/><path xmlns="http://www.w3.org/2000/svg" d="m16.529 12.171-6.871 6.871c-.044.044-.075.099-.089.159l-.727 3.084c-.026.112.007.23.089.312.063.063.148.098.236.098.025 0 .051-.003.076-.009l3.084-.727c.06-.014.116-.045.159-.089l6.871-6.871z" fill="#6f6f6f" data-original="#26c6da" style="" class=""/></g></svg>
