<?xml version="1.0" encoding="iso-8859-1"?>
<!-- Generator: Adobe Illustrator 19.0.0, SVG Export Plug-In . SVG Version: 6.00 Build 0)  -->
<svg version="1.1" id="Capa_1" xmlns="http://www.w3.org/2000/svg" xmlns:xlink="http://www.w3.org/1999/xlink" x="0px" y="0px"
	 viewBox="0 0 512 512" style="enable-background:new 0 0 512 512;" xml:space="preserve">
<path style="fill:#A8AFF1;" d="M500.6,212.599l-59.902-14.7c-3.296-10.499-7.5-20.7-12.598-30.599l30.601-51
	c3.596-6,2.699-13.5-2.102-18.3l-42.598-42.599c-4.801-4.801-12.301-5.7-18.303-2.1L344.7,83.899
	c-9.902-5.099-20.098-9.3-30.601-12.599L299.7,11.4C297.898,4.799,291.899,0,285,0h-60c-6.899,0-12.898,4.799-14.7,11.4
	l-14.399,59.9c-10.503,3.3-20.698,7.5-30.601,12.599L114.301,53.3c-6.002-3.6-13.502-2.701-18.303,2.1L53.401,98
	c-4.801,4.799-5.698,12.299-2.102,18.3l30.601,51c-5.098,9.899-9.302,20.099-12.598,30.599l-57.902,14.7
	C4.797,214.1,0,220.099,0,227v60c0,6.899,4.797,12.9,11.4,14.399l57.902,14.7c3.296,10.501,7.5,20.7,12.598,30.601l-30.601,51
	c-3.596,6-2.699,13.5,2.102,18.3l42.598,42.599c4.801,4.801,12.301,5.7,18.303,2.1l50.999-30.601
	c9.902,5.101,20.098,9.3,30.601,12.601l14.399,57.9c1.802,6.599,7.8,11.4,14.7,11.4h60c6.899,0,12.898-4.801,14.7-11.4l14.399-57.9
	c10.503-3.301,20.698-7.5,30.601-12.601l50.999,30.601c6.002,3.6,13.502,2.701,18.303-2.1L456.599,416
	c4.801-4.799,5.698-12.299,2.102-18.3l-30.601-51c5.098-9.901,9.302-20.099,12.598-30.601l59.902-14.7
	c6.603-1.5,11.4-7.5,11.4-14.399v-60C512,220.099,507.203,214.1,500.6,212.599z M255,332c-41.4,0-75-33.6-75-75s33.6-75,75-75
	s75,33.6,75,75S296.4,332,255,332z"/>
<path style="fill:#A8AFF1;" d="M512,227v60c0,6.899-4.797,12.9-11.4,14.399l-59.902,14.7c-3.296,10.501-7.5,20.7-12.598,30.601
	l30.601,51c3.596,6,2.699,13.5-2.102,18.3l-42.598,42.599c-4.801,4.801-12.301,5.7-18.303,2.1l-50.998-30.6
	c-9.902,5.101-20.098,9.3-30.601,12.601L299.7,500.6c-1.802,6.599-7.8,11.4-14.7,11.4h-30V332c41.4,0,75-33.6,75-75s-33.6-75-75-75
	V0h30c6.899,0,12.898,4.799,14.7,11.4l14.399,59.9c10.503,3.3,20.698,7.5,30.601,12.599L395.699,53.3
	c6.002-3.6,13.502-2.701,18.303,2.1L456.599,98c4.801,4.799,5.698,12.299,2.102,18.3l-30.601,51
	c5.098,9.899,9.302,20.099,12.598,30.599l59.902,14.7C507.203,214.1,512,220.099,512,227z"/>
<g>
</g>
<g>
</g>
<g>
</g>
<g>
</g>
<g>
</g>
<g>
</g>
<g>
</g>
<g>
</g>
<g>
</g>
<g>
</g>
<g>
</g>
<g>
</g>
<g>
</g>
<g>
</g>
<g>
</g>
</svg>
