<?xml version="1.0"?>
<svg xmlns="http://www.w3.org/2000/svg" xmlns:xlink="http://www.w3.org/1999/xlink" xmlns:svgjs="http://svgjs.com/svgjs" version="1.1" width="512" height="512" x="0" y="0" viewBox="0 0 511.999 511.999" style="enable-background:new 0 0 512 512" xml:space="preserve" class=""><g>
<path xmlns="http://www.w3.org/2000/svg" style="" d="M499.167,186.812l-158.144-23.105L268.502,20.568c-2.7-5.1-8.103-7.502-13.503-7.502  s-10.803,2.402-13.503,7.502l-70.522,143.14L12.832,186.812c-12.3,1.8-17.103,16.805-8.399,25.508l114.329,111.63L91.757,481.192  c-2.103,12.304,10.799,21.607,21.905,15.905l141.337-74.421l143.338,74.421c11.107,6.002,24.007-3.601,21.905-15.905L393.238,323.95  l114.329-111.63C516.27,203.616,511.467,188.612,499.167,186.812z" fill="#ffd000" data-original="#fedb41" class=""/>
<path xmlns="http://www.w3.org/2000/svg" style="" d="M507.566,212.32L393.238,323.95l27.004,157.242c2.103,12.304-10.799,21.907-21.905,15.905  l-143.338-74.421V13.066c5.399,0,10.803,2.402,13.503,7.502l72.523,143.14l158.144,23.105  C511.467,188.612,516.27,203.616,507.566,212.32z" fill="#ffd000" data-original="#ffcc33" class=""/>
<g xmlns="http://www.w3.org/2000/svg">
</g>
<g xmlns="http://www.w3.org/2000/svg">
</g>
<g xmlns="http://www.w3.org/2000/svg">
</g>
<g xmlns="http://www.w3.org/2000/svg">
</g>
<g xmlns="http://www.w3.org/2000/svg">
</g>
<g xmlns="http://www.w3.org/2000/svg">
</g>
<g xmlns="http://www.w3.org/2000/svg">
</g>
<g xmlns="http://www.w3.org/2000/svg">
</g>
<g xmlns="http://www.w3.org/2000/svg">
</g>
<g xmlns="http://www.w3.org/2000/svg">
</g>
<g xmlns="http://www.w3.org/2000/svg">
</g>
<g xmlns="http://www.w3.org/2000/svg">
</g>
<g xmlns="http://www.w3.org/2000/svg">
</g>
<g xmlns="http://www.w3.org/2000/svg">
</g>
<g xmlns="http://www.w3.org/2000/svg">
</g>
</g></svg>
