<?xml version="1.0"?>
<svg xmlns="http://www.w3.org/2000/svg" xmlns:xlink="http://www.w3.org/1999/xlink" xmlns:svgjs="http://svgjs.com/svgjs" version="1.1" width="512" height="512" x="0" y="0" viewBox="0 0 512 512" style="enable-background:new 0 0 512 512" xml:space="preserve"><circle r="256" cx="256" cy="256" fill="#ffffff" shape="circle"/><g transform="matrix(0.7,0,0,0.7,76.80000000000001,76.80000000000001)">
<rect xmlns="http://www.w3.org/2000/svg" x="33.067" y="136.533" style="" width="444.8" height="330.667" fill="#ffd15c" data-original="#ffd15c"/>
<rect xmlns="http://www.w3.org/2000/svg" x="283.733" y="228.267" style="" width="162.133" height="238.933" fill="#415a6b" data-original="#415a6b"/>
<rect xmlns="http://www.w3.org/2000/svg" x="299.733" y="244.267" style="" width="130.133" height="206.933" fill="#8ad7f8" data-original="#8ad7f8"/>
<path xmlns="http://www.w3.org/2000/svg" style="" d="M0,102.4v48c0,28.8,22.4,51.2,51.2,51.2s51.2-22.4,51.2-51.2v-48H0z" fill="#f05540" data-original="#f05540"/>
<path xmlns="http://www.w3.org/2000/svg" style="" d="M102.4,102.4v48c0,28.8,22.4,51.2,51.2,51.2s51.2-22.4,51.2-51.2v-48H102.4z" fill="#e8eae9" data-original="#e8eae9"/>
<path xmlns="http://www.w3.org/2000/svg" style="" d="M204.8,102.4v48c0,28.8,22.4,51.2,51.2,51.2c28.8,0,51.2-22.4,51.2-51.2v-48H204.8z" fill="#f05540" data-original="#f05540"/>
<path xmlns="http://www.w3.org/2000/svg" style="" d="M307.2,102.4v48c0,28.8,22.4,51.2,51.2,51.2c28.8,0,51.2-22.4,51.2-51.2v-48H307.2z" fill="#e8eae9" data-original="#e8eae9"/>
<path xmlns="http://www.w3.org/2000/svg" style="" d="M409.6,102.4v48c0,28.8,22.4,51.2,51.2,51.2s51.2-22.4,51.2-51.2v-48H409.6z" fill="#f05540" data-original="#f05540"/>
<polygon xmlns="http://www.w3.org/2000/svg" style="" points="124.8,0 37.333,0 0,102.4 102.4,102.4 " fill="#f3705a" data-original="#f3705a"/>
<polygon xmlns="http://www.w3.org/2000/svg" style="" points="212.267,0 124.8,0 102.4,102.4 204.8,102.4 " fill="#f3f3f3" data-original="#f3f3f3"/>
<polygon xmlns="http://www.w3.org/2000/svg" style="" points="299.733,0 212.267,0 204.8,102.4 307.2,102.4 " fill="#f3705a" data-original="#f3705a"/>
<polygon xmlns="http://www.w3.org/2000/svg" style="" points="387.2,0 299.733,0 307.2,102.4 409.6,102.4 " fill="#f3f3f3" data-original="#f3f3f3"/>
<polygon xmlns="http://www.w3.org/2000/svg" style="" points="474.667,0 387.2,0 409.6,102.4 512,102.4 " fill="#f3705a" data-original="#f3705a"/>
<rect xmlns="http://www.w3.org/2000/svg" y="467.2" style="" width="512" height="44.8" fill="#ced6e0" data-original="#ced6e0"/>
<g xmlns="http://www.w3.org/2000/svg">
	<circle style="" cx="320" cy="347.733" r="13.867" fill="#415a6b" data-original="#415a6b"/>
	<rect x="65.067" y="228.267" style="" width="180.267" height="162.133" fill="#415a6b" data-original="#415a6b"/>
</g>
<rect xmlns="http://www.w3.org/2000/svg" x="81.067" y="244.267" style="" width="148.267" height="130.133" fill="#8ad7f8" data-original="#8ad7f8"/>
<g xmlns="http://www.w3.org/2000/svg">
	<path style="" d="M158.933,264.533c-2.133-2.133-7.467-2.133-9.6,0L97.067,316.8c-2.133,2.133-2.133,7.467,0,9.6   s7.467,2.133,9.6,0l52.267-52.267C162.133,270.933,162.133,266.667,158.933,264.533z" fill="#55c0eb" data-original="#55c0eb"/>
	<path style="" d="M170.667,295.467c-2.133-2.133-7.467-2.133-9.6,0L128,328.533c-2.133,2.133-2.133,7.467,0,9.6   s7.467,2.133,9.6,0l33.067-33.067C173.867,301.867,173.867,297.6,170.667,295.467z" fill="#55c0eb" data-original="#55c0eb"/>
</g>
<g xmlns="http://www.w3.org/2000/svg">
</g>
<g xmlns="http://www.w3.org/2000/svg">
</g>
<g xmlns="http://www.w3.org/2000/svg">
</g>
<g xmlns="http://www.w3.org/2000/svg">
</g>
<g xmlns="http://www.w3.org/2000/svg">
</g>
<g xmlns="http://www.w3.org/2000/svg">
</g>
<g xmlns="http://www.w3.org/2000/svg">
</g>
<g xmlns="http://www.w3.org/2000/svg">
</g>
<g xmlns="http://www.w3.org/2000/svg">
</g>
<g xmlns="http://www.w3.org/2000/svg">
</g>
<g xmlns="http://www.w3.org/2000/svg">
</g>
<g xmlns="http://www.w3.org/2000/svg">
</g>
<g xmlns="http://www.w3.org/2000/svg">
</g>
<g xmlns="http://www.w3.org/2000/svg">
</g>
<g xmlns="http://www.w3.org/2000/svg">
</g>
</g></svg>
